<svg width="22" height="22" viewBox="0 0 22 22" fill="none" xmlns="http://www.w3.org/2000/svg">
<path d="M6.4023 1.62851C3.85855 1.89921 1.77027 3.57499 1.01402 5.95116C0.7648 6.7203 0.70894 7.09413 0.713237 7.97069C0.713237 8.82577 0.786284 9.28554 1.0355 10.0332C1.21167 10.5531 1.61988 11.3308 1.96363 11.7992C2.16558 12.0699 3.38589 13.3203 6.09722 16.0402C8.21558 18.1629 10.0461 19.9633 10.1621 20.0449C10.6175 20.3629 11.1847 20.466 11.5371 20.3027C11.6531 20.2512 12.8476 19.0867 15.3355 16.6117C17.325 14.6223 19.1855 12.7531 19.4605 12.4523C20.4144 11.4254 20.9128 10.4758 21.1921 9.17811C21.3296 8.54218 21.3253 7.34335 21.1878 6.70311C20.5734 3.8371 18.3906 1.88202 15.5074 1.62851C14.0593 1.4996 12.6285 1.88632 11.3996 2.7328L11.0043 3.0078L10.5918 2.7285C9.55621 2.02811 8.4648 1.66718 7.19722 1.61561C6.93941 1.60702 6.57847 1.61132 6.4023 1.62851ZM7.93199 3.07226C8.67105 3.20546 9.39722 3.53202 10.0031 4.00038C10.5445 4.42577 10.6691 4.48593 11 4.48593C11.3308 4.48593 11.4425 4.43437 11.8894 4.07772C12.6929 3.44179 13.4921 3.11522 14.5277 3.00351C15.8984 2.85312 17.3808 3.36444 18.4078 4.34413C19.1125 5.01015 19.641 5.99413 19.8343 6.99101C19.9246 7.45507 19.9375 8.36171 19.8558 8.80858C19.7312 9.50038 19.4347 10.2351 19.0351 10.8324C18.9148 11.0172 17.5613 12.4008 14.9359 15.0262C12.7832 17.1832 11.0043 18.9492 10.9785 18.9492C10.9312 18.9492 6.34214 14.3773 4.48589 12.4738C3.04214 10.9914 2.77144 10.6562 2.48785 9.96874C1.1816 6.84062 3.07652 3.45897 6.38082 3.0121C6.75035 2.96054 7.46793 2.99062 7.93199 3.07226Z" fill="black"/>
</svg>
