<svg width="22" height="22" viewBox="0 0 22 22" fill="none" xmlns="http://www.w3.org/2000/svg">
<g clip-path="url(#clip0_0_81)">
<path d="M6.64726 0.0429573C5.12617 0.317957 3.92305 1.43085 3.56211 2.89178C3.49766 3.15389 3.46758 3.45468 3.45039 4.04765L3.42461 4.85546H2.03242H0.635937L0.511328 4.98007L0.386719 5.10468V12.6887C0.386719 20.1308 0.386719 20.2769 0.472656 20.5476C0.631641 21.0719 1.02695 21.5445 1.5082 21.7894C1.93789 22.0086 1.55977 22 10.9785 22C20.5777 22 19.9633 22.0172 20.4961 21.7508C20.784 21.609 21.2051 21.1965 21.3641 20.9C21.6219 20.423 21.6133 20.5605 21.6133 16.0187V11.8594L21.4887 11.7219L21.3641 11.5801L20.0062 11.5672L18.6484 11.5543L18.627 11.4383C18.4637 10.6262 17.9867 9.99022 17.3164 9.69804C17.1875 9.64218 17.0285 9.58202 16.9641 9.56483L16.8437 9.53905V7.36483C16.8437 5.04452 16.8395 5.01015 16.6332 4.89843C16.5773 4.87264 16.0273 4.85546 15.1508 4.85546H13.75V4.13358C13.75 3.73397 13.7285 3.29569 13.7027 3.15389C13.4449 1.67577 12.3793 0.519911 10.9184 0.1203C10.4328 -0.0129013 9.4832 -0.00860596 9.00195 0.128895C8.58945 0.244911 8.60664 0.244911 8.20703 0.128895C7.84609 0.0257702 6.99961 -0.0214958 6.64726 0.0429573ZM7.25742 1.14725C6.90937 1.51249 6.7418 1.75741 6.53125 2.20428C6.26055 2.78436 6.21758 3.0121 6.1918 3.9746L6.16602 4.83397H5.24219H4.31836L4.32266 4.1035C4.32695 3.25702 4.37422 3.0078 4.64922 2.44921C5.10469 1.52108 6.14883 0.872253 7.21445 0.863661L7.53242 0.859364L7.25742 1.14725ZM10.5574 0.928114C11.666 1.15585 12.5254 1.98085 12.8047 3.08085C12.8734 3.34296 12.8906 3.5535 12.8906 4.13358V4.85546H11.9711H11.0516L11.0301 4.00468C11.0172 3.33866 10.9914 3.09374 10.927 2.85741C10.7293 2.16991 10.4328 1.6414 9.96445 1.14725C9.82695 1.00116 9.71094 0.876551 9.71094 0.872253C9.71094 0.833582 10.2824 0.872253 10.5574 0.928114ZM8.87305 1.3535C9.16523 1.54686 9.625 2.03671 9.79687 2.3289C9.86992 2.4535 9.97734 2.71132 10.0418 2.90038C10.1449 3.20975 10.1578 3.32147 10.175 4.04765L10.1922 4.85546H8.61523H7.03828L7.05547 4.00468C7.07266 3.22264 7.08555 3.13241 7.18867 2.84452C7.32187 2.47499 7.53242 2.11405 7.78164 1.83046C7.95352 1.6328 8.5207 1.20311 8.60234 1.20311C8.62383 1.20311 8.74844 1.27186 8.87305 1.3535ZM3.00781 13.432V21.1492L2.54805 21.132C2.17852 21.1191 2.04531 21.0976 1.90781 21.0203C1.66289 20.8957 1.46523 20.6894 1.34922 20.4316L1.24609 20.2168V12.9637V5.71483H2.12695H3.00781V13.432ZM6.1875 6.87929C6.1875 7.59257 6.20469 8.07382 6.23047 8.12538C6.35508 8.35311 6.72891 8.38749 6.92227 8.18124C7.02539 8.06952 7.02539 8.06952 7.03828 6.89218L7.05117 5.71483H9.96875H12.8863L12.8992 6.89218C12.9121 8.06952 12.9121 8.06952 13.0152 8.18124C13.2043 8.38319 13.4965 8.3703 13.6727 8.14686C13.7414 8.06522 13.75 7.93202 13.75 6.88358V5.71483H14.8672H15.9844V7.62265V9.53046L15.8254 9.56054C15.7352 9.57343 15.5246 9.65507 15.3527 9.73671C14.7555 10.0203 14.2699 10.6476 14.1367 11.3094L14.0895 11.5586H12.8219C11.4641 11.5586 11.3395 11.5758 11.1977 11.7777C11.1375 11.868 11.1289 12.259 11.1289 16.0058C11.1289 20.509 11.1203 20.3715 11.3738 20.8527C11.4383 20.973 11.4984 21.0891 11.507 21.1062C11.5156 21.1277 9.80117 21.1406 7.6957 21.1406H3.86719V13.4277V5.71483H5.02734H6.1875V6.87929ZM16.8695 10.4457C17.2734 10.5961 17.6301 10.9871 17.7375 11.3953L17.7805 11.5586H16.3711H14.9617L15.0047 11.3953C15.2238 10.5961 16.0918 10.1578 16.8695 10.4457ZM14.0937 13.3203C14.0937 14.2914 14.1152 14.4031 14.3129 14.5062C14.5062 14.6051 14.648 14.5793 14.807 14.4203L14.9531 14.2742V13.3461V12.418H16.3711H17.7891V13.3203C17.7891 13.8746 17.8062 14.257 17.8363 14.3215C17.8621 14.3773 17.9352 14.4547 18.0039 14.4933C18.193 14.6051 18.3391 14.5836 18.5023 14.4203L18.6484 14.2742V13.3461V12.418H19.7012H20.7539L20.7453 16.3367L20.7324 20.2598L20.6336 20.4402C20.5047 20.6894 20.2641 20.9172 20.0277 21.0289C19.8344 21.1191 19.7914 21.1191 16.4613 21.132C12.5512 21.1449 12.7789 21.1664 12.3707 20.7582C11.9625 20.35 11.9883 20.6379 11.9883 16.2336V12.418H13.041H14.0937V13.3203Z" fill="black"/>
</g>
<defs>
<clipPath id="clip0_0_81">
<rect width="22" height="22" fill="white"/>
</clipPath>
</defs>
</svg>
